# xmcd CD database file
#
# Track frame offsets:
#	150
#	13360
#	29157
#	42354
#	57982
#	71561
#	87670
#	100696
#	117612
#	130936
#	144428
#	159771
#	172263
#	184001
#	200674
#
# Disc length: 2906 seconds
#
# Revision: 2
# Processed by: cddbd v1.5.2PL0 Copyright (c) Steve Scherf et al.
# Submitted via: CDex 1.51
#
DISCID=e20b580f
DTITLE=Billie Holiday - Compilation Lady Sings The Blues II
DYEAR=1900
DGENRE=Jazz
TTITLE0=East Of The Sun
TTITLE1=Blue Moon
TTITLE2=You Go To The Head
TTITLE3=You Turned The Tables On Me
TTITLE4=Easy To love
TTITLE5=These Foolish Things
TTITLE6=I Only Have Eyes For You
TTITLE7=Everything I Have Is Yours
TTITLE8=Love For Sale
TTITLE9=Moonglow
TTITLE10=Tenderly
TTITLE11=If The Moon Turns Green
TTITLE12=Remember
TTITLE13=Autumn In New York 
TTITLE14=Autumn In New York (78 rpm take)
EXTD=
EXTT0=
EXTT1=
EXTT2=
EXTT3=
EXTT4=
EXTT5=
EXTT6=
EXTT7=
EXTT8=
EXTT9=
EXTT10=
EXTT11=
EXTT12=
EXTT13=
EXTT14=
PLAYORDER=
